<svg xmlns="http://www.w3.org/2000/svg" viewBox="0 0 1000 1000">
<defs><linearGradient id="g" x1="0%" y1="0%" x2="100%" y2="100%">
<stop offset="0%" stop-color="#0B4295"/><stop offset="100%" stop-color="#6D3495"/></linearGradient></defs>
<rect width="1000" height="1000" rx="220" fill="url(#g)"/>
<g transform="translate(76.66,832.29) scale(0.094013,-0.094013)" fill="white">
<path d="M2365 5150 c-164 -10 -462 -57 -502 -78 -12 -7 -33 -12 -47 -12 -14
0 -35 -4 -48 -9 -13 -6 -56 -19 -95 -31 -40 -12 -75 -25 -78 -30 -2 -4 -19
-10 -37 -14 -18 -3 -51 -15 -73 -25 -78 -36 -150 -71 -165 -80 -8 -5 -53 -31
-100 -57 -47 -26 -94 -56 -105 -65 -11 -10 -54 -47 -95 -82 -78 -66 -215 -218
-239 -265 -8 -15 -27 -43 -42 -63 -16 -20 -29 -41 -29 -46 0 -4 -9 -25 -20
-46 -28 -52 -70 -165 -70 -189 0 -10 -7 -32 -15 -48 -27 -51 -41 -298 -27
-466 7 -87 18 -157 27 -174 8 -16 15 -36 15 -45 0 -17 58 -156 69 -165 3 -3
18 -28 34 -57 68 -127 255 -305 432 -410 80 -48 112 -64 134 -70 14 -3 32 -10
39 -16 15 -12 91 -40 167 -63 28 -8 57 -19 66 -24 9 -5 34 -11 55 -15 22 -3
55 -12 74 -20 35 -13 56 -17 250 -55 58 -11 123 -24 146 -29 23 -6 72 -13 110
-17 38 -3 94 -12 124 -19 30 -8 96 -19 145 -25 50 -7 122 -19 160 -26 39 -8
87 -14 108 -14 21 0 52 -6 70 -14 18 -7 55 -16 82 -20 28 -4 59 -13 70 -20 11
-7 33 -16 50 -20 16 -4 48 -16 72 -27 23 -10 47 -19 52 -19 6 0 11 -4 11 -10
0 -5 11 -15 25 -23 14 -7 41 -35 60 -62 34 -47 35 -52 35 -141 0 -69 -4 -95
-15 -104 -8 -7 -15 -19 -15 -27 0 -19 -99 -113 -118 -113 -8 0 -29 -9 -46 -19
-17 -11 -49 -23 -71 -26 -22 -4 -45 -12 -52 -17 -24 -19 -240 -39 -421 -39
-171 0 -346 11 -472 31 -123 20 -220 39 -230 45 -6 4 -44 15 -83 26 -130 33
-179 48 -191 58 -6 5 -27 12 -46 16 -19 4 -44 13 -55 19 -11 7 -36 18 -55 25
-61 20 -90 34 -269 123 -101 51 -183 86 -192 83 -10 -3 -22 -18 -28 -33 -6
-15 -18 -38 -26 -52 -13 -22 -109 -220 -217 -450 -22 -47 -44 -92 -49 -100 -5
-8 -12 -22 -15 -30 -4 -8 -24 -52 -45 -98 -22 -46 -39 -89 -39 -96 0 -7 -9
-25 -21 -40 -28 -35 -18 -57 38 -86 27 -14 49 -28 51 -32 6 -14 372 -188 396
-188 6 0 24 -7 40 -15 16 -9 46 -20 65 -25 20 -5 68 -20 106 -33 39 -13 95
-29 125 -36 30 -7 84 -21 120 -32 36 -11 76 -19 90 -19 14 0 47 -7 74 -15 28
-8 100 -22 160 -30 61 -8 135 -19 165 -25 29 -5 90 -10 135 -10 45 0 136 -7
201 -15 136 -17 386 -19 490 -5 39 6 124 15 190 20 175 14 475 73 538 106 16
8 36 14 46 14 40 0 377 156 401 186 7 7 18 14 25 14 7 0 35 17 62 38 26 22 54
41 60 43 20 7 178 164 230 228 71 89 88 112 108 151 10 19 22 42 26 50 46 80
97 215 109 286 4 28 14 62 21 75 21 39 19 448 -3 514 -9 28 -19 61 -21 75 -10
46 -47 143 -61 159 -7 9 -17 26 -21 39 -9 31 -82 139 -140 206 -41 49 -206
190 -260 223 -60 37 -285 144 -315 149 -19 4 -46 13 -60 20 -49 26 -225 73
-366 98 -38 7 -75 16 -81 19 -16 10 -291 58 -379 67 -38 3 -76 10 -83 15 -8 4
-59 14 -115 21 -55 7 -162 24 -236 38 -259 49 -249 46 -370 105 -83 41 -113
66 -140 119 -20 37 -22 54 -18 136 4 92 4 93 46 146 47 59 68 74 157 112 87
38 185 65 305 83 177 28 636 8 800 -35 103 -27 207 -53 240 -59 19 -4 44 -13
55 -19 11 -6 38 -15 60 -20 22 -6 65 -20 95 -32 30 -12 73 -29 95 -37 22 -8
47 -21 57 -29 20 -19 78 -15 88 6 4 8 20 38 34 65 15 28 34 66 43 85 8 19 19
42 24 50 5 8 17 31 27 50 59 111 96 176 103 180 4 3 11 19 15 35 3 17 15 39
24 50 10 11 30 45 45 75 14 30 55 109 90 175 36 66 71 134 79 151 9 18 31 59
51 92 19 33 35 66 35 73 0 7 11 27 25 45 29 38 32 79 8 92 -10 6 -132 8 -302
5 -217 -4 -376 0 -657 16 -418 23 -973 34 -1169 21z"/>
<path d="M6445 6505 c-16 -8 -41 -14 -55 -15 -14 0 -34 -7 -44 -15 -11 -8 -31
-15 -45 -15 -14 0 -46 -6 -71 -14 -53 -17 -186 -53 -250 -67 -25 -5 -54 -15
-65 -21 -11 -7 -38 -15 -60 -18 -56 -10 -238 -60 -250 -70 -5 -4 -32 -10 -59
-14 -27 -3 -55 -11 -61 -16 -7 -6 -39 -15 -72 -20 -32 -6 -89 -20 -128 -32
l-70 -23 -7 -420 c-5 -231 -5 -477 -2 -547 3 -71 2 -128 -3 -129 -4 0 -61 -2
-126 -4 -64 -2 -121 -7 -127 -10 -5 -3 -30 -47 -55 -98 -26 -51 -58 -112 -72
-137 -51 -89 -103 -186 -142 -265 -23 -44 -59 -111 -80 -150 -22 -38 -56 -101
-76 -138 -51 -97 -57 -108 -83 -149 -16 -24 -22 -47 -20 -70 l3 -33 380 -2
c209 0 386 -1 393 -2 10 -1 13 -194 12 -1023 -1 -709 2 -1045 9 -1093 17 -102
52 -256 66 -285 7 -14 15 -39 18 -57 6 -30 75 -189 97 -223 6 -8 14 -25 20
-37 22 -52 195 -276 234 -303 11 -8 37 -30 56 -48 19 -18 53 -45 75 -59 22
-15 45 -32 50 -38 12 -14 29 -23 171 -94 144 -71 162 -79 209 -90 22 -5 60
-17 83 -26 24 -8 69 -20 100 -24 32 -5 86 -14 122 -20 36 -5 121 -15 190 -21
69 -6 144 -14 167 -16 23 -3 88 0 145 6 56 6 156 15 220 20 64 5 136 14 160
19 24 5 75 14 113 21 39 6 88 17 110 25 22 7 60 16 84 19 24 4 53 13 64 21 12
8 32 15 44 15 39 0 153 46 336 135 100 49 102 51 105 88 2 22 -1 37 -8 37 -29
0 -266 264 -305 341 -9 16 -20 29 -25 29 -4 0 -23 26 -41 58 -18 31 -36 59
-40 62 -5 3 -22 33 -40 65 -17 33 -37 67 -43 75 -7 8 -18 26 -24 40 -38 80
-92 165 -106 168 -21 4 -102 -27 -117 -44 -6 -8 -21 -14 -33 -14 -12 0 -27 -5
-32 -10 -16 -16 -153 -60 -219 -72 -82 -13 -272 -3 -321 18 -160 67 -219 119
-280 245 -75 152 -75 148 -77 1182 -1 599 1 907 8 908 6 0 253 0 550 -1 344
-1 551 3 568 9 18 7 35 29 56 73 16 35 40 79 53 98 13 19 39 62 57 95 19 33
49 79 68 102 18 23 33 44 33 48 0 3 30 43 66 88 88 110 250 274 335 339 38 28
69 55 69 60 0 7 11 15 95 61 32 18 40 28 40 50 l0 28 -998 2 -998 2 0 712 c0
629 -1 714 -15 728 -19 18 -49 18 -89 0z"/>
</g>
</svg>
