<svg xmlns="http://www.w3.org/2000/svg" width="576" height="190" viewBox="0 0 2304 760">
<title>stoits — Stolpe IT Solutions</title>
<defs>
<linearGradient id="stoitsGradient" x1="0%" y1="0%" x2="100%" y2="0%">
<stop offset="0%" stop-color="#0B4295"/>
<stop offset="100%" stop-color="#6D3495"/>
</linearGradient>
</defs>
<g transform="translate(0.000000,760.000000) scale(0.100000,-0.100000)" fill="url(#stoitsGradient)" stroke="none">
<path d="M13810 7101 c-41 -4 -85 -12 -97 -19 -12 -7 -30 -12 -40 -12 -53 0
-232 -112 -316 -198 -97 -97 -131 -155 -187 -312 -32 -90 -34 -325 -4 -399 8
-18 14 -40 14 -48 0 -16 57 -145 68 -153 4 -3 19 -23 34 -45 78 -115 282 -257
408 -284 25 -5 65 -15 90 -22 77 -20 273 -23 327 -5 26 9 61 16 78 16 53 0
277 104 305 141 3 4 22 21 43 37 47 38 152 168 162 202 4 14 13 32 20 40 7 8
22 44 35 80 18 52 23 95 27 210 5 129 3 153 -16 215 -50 163 -121 270 -256
391 -27 24 -53 44 -57 44 -4 0 -34 16 -68 36 -125 73 -348 107 -570 85z"/>
<path d="M6445 6505 c-16 -8 -41 -14 -55 -15 -14 0 -34 -7 -44 -15 -11 -8 -31
-15 -45 -15 -14 0 -46 -6 -71 -14 -53 -17 -186 -53 -250 -67 -25 -5 -54 -15
-65 -21 -11 -7 -38 -15 -60 -18 -56 -10 -238 -60 -250 -70 -5 -4 -32 -10 -59
-14 -27 -3 -55 -11 -61 -16 -7 -6 -39 -15 -72 -20 -32 -6 -89 -20 -128 -32
l-70 -23 -7 -420 c-5 -231 -5 -477 -2 -547 3 -71 2 -128 -3 -129 -4 0 -61 -2
-126 -4 -64 -2 -121 -7 -127 -10 -5 -3 -30 -47 -55 -98 -26 -51 -58 -112 -72
-137 -51 -89 -103 -186 -142 -265 -23 -44 -59 -111 -80 -150 -22 -38 -56 -101
-76 -138 -51 -97 -57 -108 -83 -149 -16 -24 -22 -47 -20 -70 l3 -33 380 -2
c209 0 386 -1 393 -2 10 -1 13 -194 12 -1023 -1 -709 2 -1045 9 -1093 17 -102
52 -256 66 -285 7 -14 15 -39 18 -57 6 -30 75 -189 97 -223 6 -8 14 -25 20
-37 22 -52 195 -276 234 -303 11 -8 37 -30 56 -48 19 -18 53 -45 75 -59 22
-15 45 -32 50 -38 12 -14 29 -23 171 -94 144 -71 162 -79 209 -90 22 -5 60
-17 83 -26 24 -8 69 -20 100 -24 32 -5 86 -14 122 -20 36 -5 121 -15 190 -21
69 -6 144 -14 167 -16 23 -3 88 0 145 6 56 6 156 15 220 20 64 5 136 14 160
19 24 5 75 14 113 21 39 6 88 17 110 25 22 7 60 16 84 19 24 4 53 13 64 21 12
8 32 15 44 15 39 0 153 46 336 135 100 49 102 51 105 88 2 22 -1 37 -8 37 -29
0 -266 264 -305 341 -9 16 -20 29 -25 29 -4 0 -23 26 -41 58 -18 31 -36 59
-40 62 -5 3 -22 33 -40 65 -17 33 -37 67 -43 75 -7 8 -18 26 -24 40 -38 80
-92 165 -106 168 -21 4 -102 -27 -117 -44 -6 -8 -21 -14 -33 -14 -12 0 -27 -5
-32 -10 -16 -16 -153 -60 -219 -72 -82 -13 -272 -3 -321 18 -160 67 -219 119
-280 245 -75 152 -75 148 -77 1182 -1 599 1 907 8 908 6 0 253 0 550 -1 344
-1 551 3 568 9 18 7 35 29 56 73 16 35 40 79 53 98 13 19 39 62 57 95 19 33
49 79 68 102 18 23 33 44 33 48 0 3 30 43 66 88 88 110 250 274 335 339 38 28
69 55 69 60 0 7 11 15 95 61 32 18 40 28 40 50 l0 28 -998 2 -998 2 0 712 c0
629 -1 714 -15 728 -19 18 -49 18 -89 0z"/>
<path d="M16920 6503 c-25 -8 -58 -19 -75 -25 -16 -5 -55 -15 -85 -23 -30 -7
-98 -24 -150 -39 -52 -15 -120 -33 -150 -41 -30 -7 -68 -18 -85 -24 -16 -6
-75 -22 -130 -36 -55 -15 -110 -30 -123 -36 -13 -5 -45 -14 -70 -19 -26 -5
-69 -16 -97 -24 -27 -8 -94 -28 -149 -43 -81 -23 -100 -32 -107 -52 -5 -13 -9
-258 -9 -550 l1 -526 -337 -3 c-229 -1 -342 -6 -351 -13 -10 -9 -13 -106 -13
-510 l0 -499 23 -14 c18 -13 77 -15 347 -15 l325 1 6 -1029 c6 -984 11 -1129
38 -1196 6 -16 11 -40 11 -55 0 -32 34 -148 61 -210 10 -23 19 -48 19 -55 1
-26 115 -237 168 -308 89 -120 281 -297 372 -342 8 -5 33 -19 55 -32 101 -61
157 -85 277 -119 25 -8 52 -17 58 -21 30 -19 265 -65 329 -65 31 0 87 -7 126
-15 80 -17 311 -20 366 -5 20 6 86 14 148 19 67 5 120 15 134 24 12 8 52 72
88 143 83 162 128 246 138 259 5 5 12 21 16 35 4 14 13 32 20 40 12 15 81 143
179 335 28 55 54 102 57 105 3 3 23 39 43 80 60 122 115 223 126 234 5 5 10
20 10 32 0 31 -33 39 -73 19 -17 -9 -79 -33 -137 -52 -58 -20 -109 -39 -115
-43 -5 -5 -28 -11 -50 -15 -22 -4 -46 -12 -53 -18 -7 -5 -29 -13 -50 -18 -37
-8 -142 -37 -237 -66 -36 -12 -96 -16 -220 -16 l-170 -1 -86 41 c-170 80 -265
221 -289 429 -10 90 -15 1872 -5 1882 2 3 233 4 512 4 384 -1 514 2 533 11 15
8 28 25 33 47 20 82 60 208 78 246 10 23 19 45 19 50 0 17 85 171 127 229 24
33 54 76 67 95 43 63 248 270 287 291 32 16 39 25 39 49 l0 30 -850 2 -851 3
1 714 c0 521 -3 717 -11 727 -14 17 -50 16 -109 -3z"/>
<path d="M10190 5167 c-3 -3 -69 -11 -146 -16 -78 -6 -179 -18 -225 -27 -155
-29 -214 -42 -244 -52 -16 -6 -69 -22 -117 -37 -47 -14 -103 -35 -124 -46 -21
-10 -48 -19 -60 -19 -12 0 -27 -7 -34 -15 -7 -8 -19 -15 -26 -15 -43 0 -402
-208 -452 -262 -9 -10 -20 -18 -25 -18 -21 0 -212 -171 -307 -276 -53 -59
-156 -188 -170 -214 -7 -12 -27 -43 -46 -67 -19 -25 -34 -50 -34 -58 0 -7 -7
-18 -15 -25 -8 -7 -35 -56 -61 -109 -25 -53 -50 -103 -54 -112 -8 -15 -51
-128 -80 -209 -7 -19 -18 -62 -25 -95 -7 -33 -17 -72 -23 -87 -12 -28 -38
-191 -53 -318 -13 -121 -10 -388 5 -486 8 -49 20 -125 27 -169 6 -44 17 -94
24 -110 7 -17 15 -53 19 -80 5 -27 14 -62 22 -77 8 -15 14 -35 14 -45 0 -18
47 -141 69 -179 5 -10 22 -46 37 -79 42 -92 129 -238 162 -273 6 -7 12 -18 12
-23 0 -14 166 -217 244 -298 63 -64 151 -143 211 -187 11 -8 46 -34 77 -59 31
-25 61 -45 67 -45 5 0 23 -12 40 -26 31 -26 83 -57 156 -94 22 -11 59 -31 82
-44 22 -13 54 -27 70 -30 15 -4 34 -13 42 -19 18 -15 125 -56 171 -66 19 -4
44 -13 55 -19 11 -6 43 -16 70 -23 235 -53 368 -78 415 -79 30 0 100 -7 155
-15 111 -16 353 -19 430 -5 28 5 98 14 157 19 59 6 124 14 145 20 21 5 72 15
113 22 41 7 87 18 102 26 15 7 37 13 48 13 12 0 42 8 68 19 26 10 79 28 118
40 39 12 84 30 101 40 16 10 44 22 61 25 17 4 36 14 43 22 6 8 18 14 27 14 19
0 203 106 292 168 179 125 369 300 479 442 28 36 57 71 63 79 29 33 98 137 98
148 0 7 6 16 13 20 8 4 25 31 40 58 47 92 113 230 120 250 3 11 15 45 27 75
37 98 80 244 80 272 0 15 6 45 14 65 8 21 20 88 26 148 7 61 16 142 20 180 13
107 11 250 -4 350 -8 50 -17 126 -21 170 -4 44 -13 92 -21 107 -8 15 -14 41
-14 59 0 30 -49 199 -69 237 -5 9 -19 46 -32 82 -21 61 -68 167 -89 200 -5 8
-30 53 -56 100 -26 47 -56 96 -67 110 -10 14 -42 57 -70 95 -54 74 -95 120
-188 214 -144 144 -194 186 -314 268 -22 15 -44 32 -50 37 -5 6 -26 19 -45 29
-19 9 -66 35 -105 57 -62 35 -134 71 -230 116 -30 13 -63 26 -160 60 -27 10
-64 23 -82 31 -17 7 -43 13 -58 13 -14 0 -38 6 -53 14 -15 8 -56 19 -92 25
-36 6 -99 17 -140 26 -41 8 -127 20 -190 26 -132 13 -452 23 -460 16z m334
-1138 c159 -28 311 -88 441 -174 127 -84 276 -259 347 -405 60 -125 68 -149
107 -331 17 -77 24 -307 12 -409 -16 -134 -39 -243 -66 -305 -31 -72 -67 -151
-75 -165 -6 -8 -16 -28 -23 -45 -8 -16 -21 -36 -30 -44 -10 -7 -17 -18 -17
-23 0 -12 -48 -66 -130 -146 -61 -59 -177 -144 -217 -159 -10 -3 -30 -15 -45
-25 -14 -10 -32 -18 -39 -18 -7 0 -31 -8 -53 -18 -86 -39 -271 -71 -411 -72
-91 0 -251 22 -283 39 -11 6 -32 11 -46 11 -25 0 -39 6 -134 53 -28 15 -58 27
-65 27 -8 0 -22 9 -32 20 -10 11 -22 20 -27 20 -18 0 -185 140 -234 196 -65
75 -119 153 -129 185 -4 13 -13 31 -20 39 -21 23 -86 207 -102 285 -8 39 -18
90 -23 115 -12 63 -12 347 1 395 6 22 16 69 23 105 56 290 260 578 502 711 86
47 173 89 184 89 6 0 36 9 67 20 32 11 75 20 98 21 22 1 51 5 65 9 38 12 285
12 354 -1z"/>
<path d="M20335 5154 c-104 -7 -233 -20 -285 -28 -52 -8 -126 -20 -165 -26
-38 -6 -84 -18 -102 -26 -17 -8 -42 -14 -55 -14 -21 0 -85 -20 -249 -78 -31
-11 -65 -24 -75 -29 -10 -6 -59 -30 -109 -54 -115 -57 -256 -146 -310 -197
-16 -15 -57 -52 -90 -82 -141 -126 -278 -336 -333 -510 -59 -187 -57 -171 -57
-420 0 -263 -1 -254 82 -487 9 -24 19 -43 23 -43 4 0 11 -11 14 -25 16 -62
191 -270 276 -328 200 -135 207 -139 330 -195 76 -35 207 -79 305 -104 22 -6
55 -17 73 -24 18 -8 43 -14 56 -14 12 0 42 -7 67 -15 51 -17 239 -53 349 -67
41 -5 98 -16 126 -24 28 -7 66 -14 84 -14 33 0 296 -40 395 -61 137 -28 176
-37 188 -47 6 -5 27 -13 44 -17 84 -18 233 -120 233 -160 0 -7 7 -18 15 -25
11 -9 15 -34 15 -96 0 -60 -4 -87 -15 -98 -8 -8 -15 -22 -15 -30 0 -21 -99
-116 -121 -116 -9 0 -22 -7 -29 -15 -7 -8 -31 -19 -54 -25 -22 -6 -49 -15 -59
-21 -10 -5 -70 -17 -135 -26 -205 -29 -633 -19 -817 18 -27 5 -84 16 -125 23
-41 7 -91 17 -110 24 -92 30 -210 62 -227 62 -10 0 -27 6 -38 13 -11 8 -38 19
-60 24 -50 14 -250 98 -282 119 -13 8 -38 14 -55 12 -28 -3 -36 -11 -71 -78
-21 -41 -51 -97 -67 -125 -15 -27 -42 -79 -60 -115 -18 -36 -47 -87 -64 -115
-18 -27 -43 -70 -56 -95 -14 -25 -37 -67 -52 -95 -16 -27 -35 -65 -43 -83 -8
-17 -31 -57 -50 -87 -19 -30 -35 -61 -35 -69 0 -8 -5 -18 -10 -21 -6 -3 -19
-23 -29 -43 -43 -86 -92 -176 -100 -186 -5 -6 -14 -27 -20 -47 -6 -20 -21 -45
-31 -54 -28 -26 -27 -73 3 -80 12 -3 308 -6 657 -8 594 -3 792 -10 1125 -39
204 -18 434 -21 532 -8 48 7 135 16 193 20 144 12 452 73 528 106 18 8 39 14
47 14 17 0 149 52 167 67 7 5 26 13 43 17 27 7 127 59 226 119 20 12 53 37 73
54 20 18 41 33 47 33 13 0 269 256 269 269 0 6 15 31 34 56 19 24 38 55 41 67
4 13 12 29 18 36 29 36 107 257 107 303 0 16 7 46 16 67 21 52 21 375 -1 446
-8 27 -15 61 -15 76 0 15 -11 59 -25 96 -61 165 -158 316 -273 424 -96 90 -92
87 -188 150 -56 37 -135 80 -148 80 -7 0 -19 7 -26 15 -7 8 -17 15 -22 15 -6
0 -32 11 -60 25 -27 14 -61 25 -76 25 -14 0 -33 6 -41 13 -9 8 -70 28 -136 45
-66 18 -135 37 -153 43 -18 6 -58 13 -90 16 -31 3 -65 10 -74 15 -22 11 -287
57 -388 68 -41 4 -86 12 -100 18 -14 5 -62 13 -105 17 -44 3 -100 13 -125 20
-25 7 -83 19 -130 26 -47 6 -104 18 -128 25 -23 8 -50 14 -59 14 -23 0 -140
48 -182 75 -96 61 -124 112 -123 227 1 87 15 127 64 180 32 35 157 109 208
123 14 3 39 12 55 20 90 40 568 60 737 31 50 -9 112 -16 137 -16 25 -1 57 -7
71 -15 14 -8 39 -15 55 -15 17 0 59 -9 95 -21 36 -11 83 -24 105 -29 49 -10
123 -36 192 -67 28 -13 54 -23 58 -23 12 0 180 -84 213 -107 19 -12 47 -23 61
-23 22 0 30 10 55 63 42 92 117 241 126 252 5 6 12 24 16 40 3 17 12 37 19 45
11 14 160 313 185 370 6 14 22 45 35 69 14 24 25 52 25 62 0 27 -58 71 -155
118 -50 24 -97 48 -105 52 -41 24 -128 61 -155 66 -16 3 -46 14 -65 25 -19 10
-42 18 -51 18 -9 0 -36 9 -60 19 -24 11 -87 29 -139 41 -52 11 -120 28 -150
36 -72 18 -277 50 -410 63 -121 12 -443 32 -480 30 -14 -1 -110 -8 -215 -15z"/>
<path d="M2365 5150 c-164 -10 -462 -57 -502 -78 -12 -7 -33 -12 -47 -12 -14
0 -35 -4 -48 -9 -13 -6 -56 -19 -95 -31 -40 -12 -75 -25 -78 -30 -2 -4 -19
-10 -37 -14 -18 -3 -51 -15 -73 -25 -78 -36 -150 -71 -165 -80 -8 -5 -53 -31
-100 -57 -47 -26 -94 -56 -105 -65 -11 -10 -54 -47 -95 -82 -78 -66 -215 -218
-239 -265 -8 -15 -27 -43 -42 -63 -16 -20 -29 -41 -29 -46 0 -4 -9 -25 -20
-46 -28 -52 -70 -165 -70 -189 0 -10 -7 -32 -15 -48 -27 -51 -41 -298 -27
-466 7 -87 18 -157 27 -174 8 -16 15 -36 15 -45 0 -17 58 -156 69 -165 3 -3
18 -28 34 -57 68 -127 255 -305 432 -410 80 -48 112 -64 134 -70 14 -3 32 -10
39 -16 15 -12 91 -40 167 -63 28 -8 57 -19 66 -24 9 -5 34 -11 55 -15 22 -3
55 -12 74 -20 35 -13 56 -17 250 -55 58 -11 123 -24 146 -29 23 -6 72 -13 110
-17 38 -3 94 -12 124 -19 30 -8 96 -19 145 -25 50 -7 122 -19 160 -26 39 -8
87 -14 108 -14 21 0 52 -6 70 -14 18 -7 55 -16 82 -20 28 -4 59 -13 70 -20 11
-7 33 -16 50 -20 16 -4 48 -16 72 -27 23 -10 47 -19 52 -19 6 0 11 -4 11 -10
0 -5 11 -15 25 -23 14 -7 41 -35 60 -62 34 -47 35 -52 35 -141 0 -69 -4 -95
-15 -104 -8 -7 -15 -19 -15 -27 0 -19 -99 -113 -118 -113 -8 0 -29 -9 -46 -19
-17 -11 -49 -23 -71 -26 -22 -4 -45 -12 -52 -17 -24 -19 -240 -39 -421 -39
-171 0 -346 11 -472 31 -123 20 -220 39 -230 45 -6 4 -44 15 -83 26 -130 33
-179 48 -191 58 -6 5 -27 12 -46 16 -19 4 -44 13 -55 19 -11 7 -36 18 -55 25
-61 20 -90 34 -269 123 -101 51 -183 86 -192 83 -10 -3 -22 -18 -28 -33 -6
-15 -18 -38 -26 -52 -13 -22 -109 -220 -217 -450 -22 -47 -44 -92 -49 -100 -5
-8 -12 -22 -15 -30 -4 -8 -24 -52 -45 -98 -22 -46 -39 -89 -39 -96 0 -7 -9
-25 -21 -40 -28 -35 -18 -57 38 -86 27 -14 49 -28 51 -32 6 -14 372 -188 396
-188 6 0 24 -7 40 -15 16 -9 46 -20 65 -25 20 -5 68 -20 106 -33 39 -13 95
-29 125 -36 30 -7 84 -21 120 -32 36 -11 76 -19 90 -19 14 0 47 -7 74 -15 28
-8 100 -22 160 -30 61 -8 135 -19 165 -25 29 -5 90 -10 135 -10 45 0 136 -7
201 -15 136 -17 386 -19 490 -5 39 6 124 15 190 20 175 14 475 73 538 106 16
8 36 14 46 14 40 0 377 156 401 186 7 7 18 14 25 14 7 0 35 17 62 38 26 22 54
41 60 43 20 7 178 164 230 228 71 89 88 112 108 151 10 19 22 42 26 50 46 80
97 215 109 286 4 28 14 62 21 75 21 39 19 448 -3 514 -9 28 -19 61 -21 75 -10
46 -47 143 -61 159 -7 9 -17 26 -21 39 -9 31 -82 139 -140 206 -41 49 -206
190 -260 223 -60 37 -285 144 -315 149 -19 4 -46 13 -60 20 -49 26 -225 73
-366 98 -38 7 -75 16 -81 19 -16 10 -291 58 -379 67 -38 3 -76 10 -83 15 -8 4
-59 14 -115 21 -55 7 -162 24 -236 38 -259 49 -249 46 -370 105 -83 41 -113
66 -140 119 -20 37 -22 54 -18 136 4 92 4 93 46 146 47 59 68 74 157 112 87
38 185 65 305 83 177 28 636 8 800 -35 103 -27 207 -53 240 -59 19 -4 44 -13
55 -19 11 -6 38 -15 60 -20 22 -6 65 -20 95 -32 30 -12 73 -29 95 -37 22 -8
47 -21 57 -29 20 -19 78 -15 88 6 4 8 20 38 34 65 15 28 34 66 43 85 8 19 19
42 24 50 5 8 17 31 27 50 59 111 96 176 103 180 4 3 11 19 15 35 3 17 15 39
24 50 10 11 30 45 45 75 14 30 55 109 90 175 36 66 71 134 79 151 9 18 31 59
51 92 19 33 35 66 35 73 0 7 11 27 25 45 29 38 32 79 8 92 -10 6 -132 8 -302
5 -217 -4 -376 0 -657 16 -418 23 -973 34 -1169 21z"/>
<path d="M13307 5053 c-4 -3 -7 -995 -7 -2204 0 -1747 3 -2199 13 -2206 19
-12 1289 -4 1304 9 18 15 19 4378 1 4396 -9 9 -169 12 -658 12 -356 0 -650 -3
-653 -7z"/>
</g>
</svg>
