<svg xmlns="http://www.w3.org/2000/svg" viewBox="0 0 12129.3 1922.0" width="1100" height="174">
<defs>
<linearGradient id="wordmarkGradient" x1="0%" y1="0%" x2="100%" y2="0%">
<stop offset="0%" stop-color="#0B4295"/>
<stop offset="100%" stop-color="#6D3495"/>
</linearGradient>
</defs>
<g transform="translate(20.0, 1454.0)" fill="url(#wordmarkGradient)">
<path d="M98-24Q101-79 104-173.50Q107-268 109-386.50Q111-505 111-631Q111-757 109-880.50Q107-1004 104-1109Q101-1214 98-1285Q127-1289 189-1294Q251-1299 318-1299Q350-1299 393-1297Q436-1295 451-1292Q453-1240 452.50-1160Q452-1080 449.50-981Q447-882 443-771.50Q439-661 434-550Q431-491 427.50-435.50Q424-380 420-341Q499-346 576-349Q653-352 730.50-354Q808-356 886-356Q890-330 893-274Q896-218 898-154.50Q900-91 900-44Q780-28 657.50-20.50Q535-13 425-12Q334-11 249.50-14.50Q165-18 98-24"/>
<path d="M1695-978Q1720-987 1766.50-991.50Q1813-996 1857-996Q1894-996 1939-993Q1984-990 2012-986Q2025-905 2032-822.50Q2039-740 2039-660Q2039-513 2013.50-383Q1988-253 1930-154Q1872-55 1775 1.50Q1678 58 1536 58Q1385 58 1287-1.50Q1189-61 1134-167.50Q1079-274 1057.50-416.50Q1036-559 1036-724Q1036-797 1039.50-872.50Q1043-948 1049-1023Q1075-1025 1117.50-1026.50Q1160-1028 1195-1027Q1245-1027 1295.50-1021.50Q1346-1016 1375-1007Q1368-939 1363-860.50Q1358-782 1358-703Q1358-571 1375.50-465Q1393-359 1434-297Q1475-235 1545-235Q1611-235 1650.50-291Q1690-347 1707.50-441.50Q1725-536 1725-653Q1725-741 1716.50-826.50Q1708-912 1695-978"/>
<path d="M2902-437L3115-212Q3085-160 3024-109Q2963-58 2873-24Q2783 10 2666 10Q2514 10 2403-65.50Q2292-141 2231.50-266.50Q2171-392 2171-542Q2171-700 2233.50-825Q2296-950 2410-1023Q2524-1096 2680-1096Q2773-1096 2851-1067Q2929-1038 2988.50-985Q3048-932 3087-861L2869-739Q2866-747 2855.50-764Q2845-781 2825-800Q2805-819 2772.50-832Q2740-845 2692-845Q2620-845 2570-814Q2520-783 2494.50-726Q2469-669 2469-592Q2469-528 2488-463.50Q2507-399 2552-356Q2597-313 2676-313Q2723-313 2763-329Q2803-345 2832.50-367.50Q2862-390 2880-410Q2898-430 2902-437"/>
<path d="M3675 17Q3552 17 3450-16.50Q3348-50 3287.50-125.50Q3227-201 3227-326Q3227-451 3297.50-527.50Q3368-604 3483.50-638.50Q3599-673 3732-673Q3784-673 3832-665Q3880-657 3916.50-646Q3953-635 3969-625Q3968-651 3958.50-680Q3949-709 3932-729Q3902-770 3850.50-797.50Q3799-825 3715-825Q3630-825 3565-786.50Q3500-748 3466-700L3222-857Q3267-921 3343.50-969Q3420-1017 3517.50-1044Q3615-1071 3722-1071Q3899-1071 4009-1013Q4119-955 4172-851Q4197-801 4213-741Q4229-681 4235-603Q4239-536 4241-478Q4243-420 4245-368Q4247-292 4262-269Q4277-246 4305-246Q4331-246 4351.50-260.50Q4372-275 4378-299L4482-100Q4471-54 4420-23Q4369 8 4291 8Q4234 8 4183-11.50Q4132-31 4099-64.50Q4066-98 4060-141Q4044-103 3993-66.50Q3942-30 3862-6.50Q3782 17 3675 17M3742-218Q3789-218 3838.50-232.50Q3888-247 3928.50-269Q3969-291 3991-314Q3989-345 3987.50-378Q3986-411 3987-434Q3965-443 3903.50-453.50Q3842-464 3775-464Q3714-464 3661-451Q3608-438 3574.50-411Q3541-384 3541-341Q3541-295 3566-268Q3591-241 3636-229.50Q3681-218 3742-218"/>
<path d="M4953 79Q4836 79 4738.50 50.50Q4641 22 4573.50-16.50Q4506-55 4476-86Q4482-105 4499.50-141.50Q4517-178 4541-221Q4565-264 4589-301Q4613-338 4632-356Q4680-315 4736-275.50Q4792-236 4851-211Q4910-186 4961-186Q5001-186 5033-196.50Q5065-207 5083.50-228Q5102-249 5102-280Q5102-316 5067.50-349.50Q5033-383 4979-413Q4925-443 4866-467Q4785-500 4715-544.50Q4645-589 4602-654.50Q4559-720 4559-818Q4559-918 4618-986Q4677-1054 4772.50-1089Q4868-1124 4977-1124Q5080-1124 5186-1095.50Q5292-1067 5359-1014Q5353-995 5333.50-956Q5314-917 5286.50-872.50Q5259-828 5228-791Q5187-826 5125-858Q5063-890 4995-890Q4961-890 4927.50-883Q4894-876 4872.50-858Q4851-840 4851-809Q4851-779 4874-755.50Q4897-732 4941.50-710Q4986-688 5046-664Q5106-640 5168-607.50Q5230-575 5282.50-530Q5335-485 5367-425.50Q5399-366 5399-289Q5399-166 5338-84Q5277-2 5175.50 38.50Q5074 79 4953 79"/>
<path d="M6625 16Q6550 16 6472.50-2Q6395-20 6322.50-55Q6250-90 6190-141.50Q6130-193 6089-260Q6095-270 6121-294.50Q6147-319 6181-348.50Q6215-378 6248.50-403Q6282-428 6304-439Q6336-402 6372.50-365Q6409-328 6450.50-298.50Q6492-269 6540-251Q6588-233 6642-233Q6704-233 6740.50-256Q6777-279 6793-314.50Q6809-350 6809-387Q6809-417 6794-444Q6779-471 6749-495.50Q6719-520 6674.50-543.50Q6630-567 6570-588Q6450-634 6353-685.50Q6256-737 6198.50-810Q6141-883 6141-993Q6141-1110 6206-1189Q6271-1268 6378-1308.50Q6485-1349 6608-1349Q6701-1349 6788.50-1328.50Q6876-1308 6952-1267Q7028-1226 7083-1164Q7068-1142 7036-1105Q7004-1068 6968-1031Q6932-994 6907-972Q6867-1011 6818-1042.50Q6769-1074 6715-1092.50Q6661-1111 6606-1111Q6542-1111 6498-1083.50Q6454-1056 6454-1001Q6454-976 6465.50-956Q6477-936 6498-920Q6519-904 6548-890.50Q6577-877 6613-865Q6715-831 6807.50-794Q6900-757 6971.50-708.50Q7043-660 7084-590Q7125-520 7125-419Q7125-324 7088-244.50Q7051-165 6984.50-106.50Q6918-48 6826.50-16Q6735 16 6625 16"/>
<path d="M8046-131Q8027-94 7986.50-52.50Q7946-11 7881.50 18.50Q7817 48 7725 48Q7604 48 7527.50-3Q7451-54 7414.50-139Q7378-224 7378-325Q7378-380 7379.50-442.50Q7381-505 7383-566.50Q7385-628 7387.50-683.50Q7390-739 7392.50-781Q7395-823 7396-846Q7317-838 7250-828.50Q7183-819 7157-813Q7147-869 7142-927Q7137-985 7134.50-1028Q7132-1071 7132-1081Q7190-1089 7256-1095.50Q7322-1102 7395-1105Q7394-1129 7393-1180Q7392-1231 7390-1272Q7389-1309 7386-1346.50Q7383-1384 7381-1407L7677-1433Q7677-1421 7677.50-1377Q7678-1333 7678-1271Q7678-1240 7679-1199.50Q7680-1159 7681-1120Q7714-1122 7758-1124Q7802-1126 7828-1127Q7870-1129 7904-1129.50Q7938-1130 7960.50-1130Q7983-1130 7991-1129Q7997-1082 7999-1009.50Q8001-937 8001-881Q7991-882 7936-880.50Q7881-879 7828-876Q7791-875 7746-872Q7701-869 7675-866Q7674-845 7672.50-808.50Q7671-772 7669.50-726.50Q7668-681 7666.50-632.50Q7665-584 7664-539Q7663-494 7663-459Q7663-393 7669.50-340.50Q7676-288 7698.50-257.50Q7721-227 7768-227Q7799-227 7821-245Q7843-263 7857.50-287.50Q7872-312 7883-331Q7896-313 7919.50-283.50Q7943-254 7969.50-222Q7996-190 8017.50-165Q8039-140 8046-131"/>
<path d="M8600 22Q8335 22 8201-118.50Q8067-259 8067-527Q8067-706 8136-824.50Q8205-943 8327.50-1003Q8450-1063 8611-1063Q8775-1063 8883.50-988Q8992-913 9046-781Q9100-649 9100-476Q9100-325 9042-213Q8984-101 8872.50-39.50Q8761 22 8600 22M8589-265Q8644-265 8686.50-284Q8729-303 8758.50-338.50Q8788-374 8803-422Q8818-470 8818-527Q8818-616 8792.50-684.50Q8767-753 8717.50-791.50Q8668-830 8595-830Q8516-830 8466-790Q8416-750 8392.50-685.50Q8369-621 8369-548Q8369-425 8425.50-345Q8482-265 8589-265"/>
<path d="M9818-47Q9790-17 9713.50 11.50Q9637 40 9543 40Q9421 40 9357.50-17Q9294-74 9272-178.50Q9250-283 9250-422Q9250-531 9252-641Q9254-751 9257.50-859Q9261-967 9265.50-1068.50Q9270-1170 9274.50-1261.50Q9279-1353 9284-1429Q9355-1434 9415-1434Q9454-1434 9492-1432Q9530-1430 9576-1426Q9571-1339 9564.50-1233.50Q9558-1128 9552.50-1018Q9547-908 9542-805Q9537-702 9534.50-618.50Q9532-535 9532-485Q9532-420 9537.50-364.50Q9543-309 9563-274.50Q9583-240 9623-240Q9657-240 9678.50-255.50Q9700-271 9714-295Q9721-283 9736-247.50Q9751-212 9769-169Q9787-126 9801-91.50Q9815-57 9818-47"/>
<path d="M9870 448Q9882 285 9891.50 105Q9901-75 9907-252Q9913-429 9917.50-585Q9922-741 9923.50-858.50Q9925-976 9925-1036Q9987-1056 10068-1064.50Q10149-1073 10225-1073Q10228-1041 10230-997.50Q10232-954 10232-918Q10251-943 10298-979.50Q10345-1016 10416-1044Q10487-1072 10579-1072Q10782-1072 10879.50-943.50Q10977-815 10977-586Q10977-425 10916-308Q10855-191 10750-128.50Q10645-66 10510-66Q10449-66 10386.50-81.50Q10324-97 10275.50-120.50Q10227-144 10209-166Q10209-142 10206.50-86Q10204-30 10201 41.50Q10198 113 10193.50 187Q10189 261 10185 323.50Q10181 386 10177 421Q10124 432 10064.50 437.50Q10005 443 9953 445.50Q9901 448 9870 448M10462-376Q10531-376 10578-404Q10625-432 10649-484.50Q10673-537 10673-610Q10673-708 10627.50-761Q10582-814 10481-814Q10420-814 10370-795Q10320-776 10285.50-749.50Q10251-723 10233-700Q10233-686 10232-655.50Q10231-625 10230-588.50Q10229-552 10228-520Q10227-488 10227-470Q10244-453 10274-431Q10304-409 10350-392.50Q10396-376 10462-376"/>
<path d="M12086-179Q12058-145 12016-112Q11974-79 11915.50-52.50Q11857-26 11782-10.50Q11707 5 11614 5Q11463 5 11346-52.50Q11229-110 11163.50-223.50Q11098-337 11098-506Q11098-675 11166-800.50Q11234-926 11356-995.50Q11478-1065 11641-1065Q11847-1065 11965.50-950.50Q12084-836 12089-634Q12090-597 12088-567Q12086-537 12080-503Q12065-504 12016-505Q11967-506 11905.50-507.50Q11844-509 11789.50-510Q11735-511 11709-511Q11622-511 11540.50-503Q11459-495 11404-486Q11404-468 11406.50-450.50Q11409-433 11414-417Q11427-376 11459.50-347Q11492-318 11537.50-302.50Q11583-287 11634-287Q11680-287 11718.50-298.50Q11757-310 11789-329Q11821-348 11847.50-370.50Q11874-393 11897-415Q11903-410 11928-385.50Q11953-361 11984-325.50Q12015-290 12043-251Q12071-212 12086-179M11415-673Q11460-680 11526-686Q11592-692 11679-692Q11726-692 11762.50-691Q11799-690 11814-689Q11814-710 11808-735Q11800-769 11776.50-800Q11753-831 11716.50-850Q11680-869 11629-869Q11565-869 11517.50-841Q11470-813 11444-768Q11418-723 11415-673"/>
</g>
</svg>
